<svg xmlns="http://www.w3.org/2000/svg" viewBox="0 0 1544 500" role="img" aria-labelledby="t d">
<title id="t">Sidrena — besplatan WordPress i WooCommerce dodatak za sidrene cijene</title>
<desc id="d">Premium WordPress.org banner za Sidrena dodatak.</desc>
<defs>
	<linearGradient id="sky" x1="0" y1="0" x2="1" y2="1"><stop stop-color="#062b4d"/><stop offset=".55" stop-color="#073d6c"/><stop offset="1" stop-color="#031a31"/></linearGradient>
	<linearGradient id="sea" x1="0" y1="0" x2="0" y2="1"><stop stop-color="#0b4e82"/><stop offset="1" stop-color="#03182b"/></linearGradient>
	<linearGradient id="s" x1="90" y1="70" x2="275" y2="280"><stop stop-color="#2ce8df"/><stop offset=".35" stop-color="#168dff"/><stop offset=".72" stop-color="#0750a5"/><stop offset="1" stop-color="#20d0c6"/></linearGradient>
	<filter id="glow" x="-30%" y="-30%" width="160%" height="160%"><feDropShadow dx="0" dy="8" stdDeviation="10" flood-color="#001425" flood-opacity=".35"/></filter>
</defs>
<rect width="1544" height="500" fill="url(#sky)"/>
<path d="M0 335c148-36 264 12 402-17 173-36 300 16 457-15 188-37 348 9 685-28v225H0z" fill="url(#sea)"/>
<path d="M940 426c104-72 156-129 228-130 86-1 130 64 195 76 54 10 111-13 181-34v162H884z" fill="#021526" opacity=".92"/>
<g transform="translate(70 50)" filter="url(#glow)">
	<path d="M175 43c-19-13-43-18-66-14-26 4-45 16-52 34-8 18-1 38 18 47 12 6 26 8 43 9 23 2 36 6 41 14 4 8-1 16-12 22-14 8-33 8-51 0-12-5-22-13-30-22" fill="none" stroke="url(#s)" stroke-width="34" stroke-linecap="round"/>
	<path d="M72 170c17 17 39 26 63 23 23-3 41-13 50-30" fill="none" stroke="#21d5ca" stroke-width="23" stroke-linecap="round"/>
	<g fill="none" stroke="#fff" stroke-linecap="round" stroke-linejoin="round">
		<circle cx="119" cy="65" r="13" stroke-width="9"/><path d="M119 78v68M98 99h42" stroke-width="10"/>
		<path d="M78 136c7 27 22 41 41 41s35-14 42-41" stroke-width="10"/><path d="m78 136-15 8 13 13m85-21 15 8-13 13" stroke-width="10"/>
	</g>
</g>
<text x="295" y="171" fill="#fff" font-family="Inter,Segoe UI,Arial,sans-serif" font-size="86" font-weight="820" letter-spacing="-4">Sidrena</text>
<text x="75" y="285" fill="#fff" font-family="Inter,Segoe UI,Arial,sans-serif" font-size="38" font-weight="800">Besplatan WordPress i WooCommerce dodatak</text>
<text x="75" y="332" fill="#49e6dc" font-family="Inter,Segoe UI,Arial,sans-serif" font-size="38" font-weight="800">za sidrene cijene.</text>
<g font-family="Inter,Segoe UI,Arial,sans-serif" font-size="20" font-weight="750">
	<g transform="translate(75 382)"><rect width="196" height="62" rx="16" fill="#07345c" stroke="#1f6ca4"/><text x="62" y="38" fill="#fff">30+ dana arhive</text><rect x="20" y="17" width="28" height="29" rx="5" fill="none" stroke="#39ddd5" stroke-width="3"/><text x="25" y="38" fill="#39ddd5" font-size="12">30+</text></g>
	<g transform="translate(288 382)"><rect width="160" height="62" rx="16" fill="#07345c" stroke="#1f6ca4"/><path d="M22 17h28v30H22z" fill="none" stroke="#39ddd5" stroke-width="3"/><text x="66" y="38" fill="#fff">CSV/XML</text></g>
	<g transform="translate(465 382)"><rect width="195" height="62" rx="16" fill="#07345c" stroke="#1f6ca4"/><path d="M22 43V31m11 12V23m11 20V16" stroke="#39ddd5" stroke-width="4" stroke-linecap="round"/><text x="67" y="38" fill="#fff">Povijest cijena</text></g>
	<g transform="translate(677 382)"><rect width="190" height="62" rx="16" fill="#07345c" stroke="#1f6ca4"/><path d="M35 16l15 6v11c0 9-6 14-15 18-9-4-15-9-15-18V22z" fill="none" stroke="#39ddd5" stroke-width="3"/><path d="m28 33 5 5 10-12" fill="none" stroke="#39ddd5" stroke-width="3"/><text x="67" y="38" fill="#fff">Bez telemetrije</text></g>
</g>
<g transform="translate(1005 75)">
	<rect width="445" height="285" rx="22" fill="#eaf3fb" stroke="#80b9e8" stroke-width="4" transform="skewY(-2)"/>
	<rect x="24" y="25" width="108" height="232" rx="12" fill="#071d34"/>
	<text x="48" y="60" fill="#fff" font-family="Inter,Segoe UI,Arial,sans-serif" font-size="17" font-weight="800">⚓ Sidrena</text>
	<rect x="38" y="82" width="80" height="31" rx="7" fill="#1677ff"/><text x="56" y="103" fill="#fff" font-family="Arial" font-size="12">Pregled</text>
	<text x="38" y="139" fill="#b6c9da" font-family="Arial" font-size="11">Cjenici</text><text x="38" y="166" fill="#b6c9da" font-family="Arial" font-size="11">Povijest</text><text x="38" y="193" fill="#b6c9da" font-family="Arial" font-size="11">Arhiva 30+</text>
	<rect x="153" y="27" width="270" height="230" rx="13" fill="#fff"/>
	<text x="176" y="62" fill="#082642" font-family="Inter,Segoe UI,Arial,sans-serif" font-size="22" font-weight="800">Povijest cijena</text>
	<text x="177" y="100" fill="#082642" font-family="Arial" font-size="15" font-weight="700">69,99 €</text><text x="246" y="100" fill="#8396a8" font-family="Arial" font-size="12" text-decoration="line-through">99,99 €</text>
	<polyline points="178,174 205,157 234,160 263,139 293,144 324,129 355,142 390,133" fill="none" stroke="#1677ff" stroke-width="4" stroke-linecap="round" stroke-linejoin="round"/>
	<g fill="#fff" stroke="#1677ff" stroke-width="3"><circle cx="178" cy="174" r="4"/><circle cx="205" cy="157" r="4"/><circle cx="234" cy="160" r="4"/><circle cx="263" cy="139" r="4"/><circle cx="293" cy="144" r="4"/><circle cx="324" cy="129" r="4"/><circle cx="355" cy="142" r="4"/><circle cx="390" cy="133" r="4"/></g>
	<rect x="177" y="207" width="72" height="28" rx="7" fill="#eff6fd"/><text x="193" y="226" fill="#0a4b83" font-family="Arial" font-size="10">Export CSV</text>
	<rect x="259" y="207" width="72" height="28" rx="7" fill="#eff6fd"/><text x="275" y="226" fill="#0a4b83" font-family="Arial" font-size="10">Export XML</text>
</g>
<g transform="translate(1373 36)">
	<rect x="23" y="58" width="28" height="134" fill="#dfeaf0"/><path d="M17 58h40L37 38z" fill="#dfeaf0"/><rect x="28" y="18" width="18" height="20" fill="#0a2947"/><path d="M26 18h22L37 5z" fill="#081f36"/><circle cx="37" cy="28" r="5" fill="#fff4a8"/>
	<path d="M37 28 170 6" stroke="#e7fdff" stroke-width="3" opacity=".75"/>
</g>
</svg>