<!-- Sidrena source file | Author: Brendigo | Author URI: https://brendigo.com/ | Plugin URI: https://brendigo.com/sidrene-cijene/ | Support: sidrena@brendigo.com -->
<svg xmlns="http://www.w3.org/2000/svg" viewBox="0 0 800 150" role="img" aria-labelledby="t d">
<title id="t">SIDRENA WooCommerce</title><desc id="d">SIDRENA WooCommerce — za postojeće WooCommerce proizvode i varijacije.</desc>
<defs><linearGradient id="sidMark" x1="18" y1="8" x2="112" y2="122" gradientUnits="userSpaceOnUse"><stop stop-color="#78F1FF"/><stop offset=".32" stop-color="#20C2F4"/><stop offset=".68" stop-color="#1685EA"/><stop offset="1" stop-color="#1557D6"/></linearGradient></defs>
<g transform="translate(7 10) scale(.98)"><g fill="none" stroke="url(#sidMark)" stroke-linecap="round" stroke-linejoin="round">
  <circle cx="64" cy="16" r="7" stroke-width="6"/>
  <path d="M86 30C77 23 61 21 48 25C36 29 31 38 34 47C37 56 47 60 61 62C75 64 84 67 87 74C90 82 84 90 74 94C60 99 44 95 34 86" stroke-width="13"/>
  <path d="M64 24v88M45 49h38M27 83c5 22 18 35 37 35s32-13 37-35M27 83l-13 8 12 12m75-20 13 8-12 12" stroke-width="7"/>
</g></g>
<text x="148" y="61" fill="#082D5B" font-family="Inter,Segoe UI,Arial,sans-serif" font-size="45" font-weight="800" letter-spacing="2">SIDRENA</text>
<text x="148" y="108" fill="#7C3AED" font-family="Inter,Segoe UI,Arial,sans-serif" font-size="35" font-weight="800">WooCommerce</text>
<line x1="470" y1="30" x2="470" y2="124" stroke="#D7E4EF" stroke-width="2"/>
<text x="495" y="57" fill="#536F89" font-family="Inter,Segoe UI,Arial,sans-serif" font-size="17" font-weight="700">Za postojeće</text>
<text x="495" y="84" fill="#7C3AED" font-family="Inter,Segoe UI,Arial,sans-serif" font-size="18" font-weight="800">WooCommerce proizvode</text>
<text x="495" y="109" fill="#64748B" font-family="Inter,Segoe UI,Arial,sans-serif" font-size="16">i varijacije.</text>
</svg>