<!-- Sidrena source file | Author: Brendigo | Author URI: https://brendigo.com/ | Plugin URI: https://brendigo.com/sidrene-cijene/ | Support: sidrena@brendigo.com -->
<svg xmlns="http://www.w3.org/2000/svg" viewBox="0 0 760 170" role="img" aria-labelledby="title desc">
<title id="title">SIDRENA</title><desc id="desc">SIDRENA — usklađene cijene, sigurno poslovanje.</desc>
<defs><linearGradient id="sidrena-mark" x1="28" y1="12" x2="112" y2="140" gradientUnits="userSpaceOnUse"><stop stop-color="#78efff"/><stop offset=".38" stop-color="#20bdf4"/><stop offset=".72" stop-color="#1685ea"/><stop offset="1" stop-color="#1557d6"/></linearGradient></defs>
<g transform="translate(8 4)">
 <path d="M82 29c-9-8-24-11-37-6-11 4-18 12-17 22 1 11 10 16 27 19 17 3 25 7 25 16 0 9-10 16-24 16-13 0-25-5-34-14" fill="none" stroke="url(#sidrena-mark)" stroke-width="13" stroke-linecap="round" stroke-linejoin="round"/>
 <circle cx="62" cy="16" r="7" fill="none" stroke="url(#sidrena-mark)" stroke-width="6"/>
 <path d="M62 23v83M43 57h38M62 106c-7 0-14-3-20-8-7-6-12-14-15-25l-12 8 10 10M62 106c7 0 14-3 20-8 7-6 12-14 15-25l12 8-10 10M62 106v19" fill="none" stroke="url(#sidrena-mark)" stroke-width="7" stroke-linecap="round" stroke-linejoin="round"/>
 <path d="M27 91c7 23 19 35 35 35s28-12 35-35" fill="none" stroke="url(#sidrena-mark)" stroke-width="7" stroke-linecap="round"/>
</g>
<text x="142" y="91" fill="#082D5B" font-family="Inter,Segoe UI,Arial,sans-serif" font-size="66" font-weight="800" letter-spacing="3">SIDRENA</text>
<text x="146" y="125" fill="#536f89" font-family="Inter,Segoe UI,Arial,sans-serif" font-size="13" font-weight="700" letter-spacing="5">USKLAĐENE CIJENE. SIGURNO POSLOVANJE.</text>
</svg>